<svg width="78" height="87" viewBox="0 0 78 87" fill="none" xmlns="http://www.w3.org/2000/svg">
<path d="M22.3828 86.7773C17.8906 86.7773 13.9648 85.8594 10.6055 84.0234C7.24609 82.1484 4.62891 79.5312 2.75391 76.1719C0.917969 72.7734 0 68.7695 0 64.1602V22.6172C0 18.0078 0.917969 14.0234 2.75391 10.6641C4.62891 7.26562 7.24609 4.64844 10.6055 2.8125C13.9648 0.9375 17.8906 0 22.3828 0C26.8359 0 30.7227 0.9375 34.043 2.8125C37.3633 4.64844 39.9414 7.26562 41.7773 10.6641C43.6523 14.0234 44.5898 18.0078 44.5898 22.6172V64.1602C44.5898 68.7695 43.6523 72.7734 41.7773 76.1719C39.9414 79.5312 37.3633 82.1484 34.043 84.0234C30.7227 85.8594 26.8359 86.7773 22.3828 86.7773ZM22.3242 73.1836C23.5352 73.1836 24.5508 72.8906 25.3711 72.3047C26.2305 71.7188 26.875 70.8984 27.3047 69.8438C27.7734 68.75 28.0078 67.4609 28.0078 65.9766V20.7422C28.0078 19.2578 27.7734 17.9883 27.3047 16.9336C26.875 15.8789 26.2305 15.0586 25.3711 14.4727C24.5508 13.8867 23.5352 13.5938 22.3242 13.5938C21.1133 13.5938 20.0781 13.8867 19.2188 14.4727C18.3594 15.0586 17.6953 15.8984 17.2266 16.9922C16.7969 18.0469 16.582 19.2969 16.582 20.7422V65.9766C16.582 67.4609 16.7969 68.75 17.2266 69.8438C17.6953 70.8984 18.3594 71.7188 19.2188 72.3047C20.0781 72.8906 21.1133 73.1836 22.3242 73.1836ZM61.5844 85.6641V17.2852H61.2328L48.6937 27.1289V11.4258L61.5844 1.11328H77.8148V85.6641H61.5844Z" fill="#DADADA"/>
</svg>
