<svg width="91" height="87" viewBox="0 0 91 87" fill="none" xmlns="http://www.w3.org/2000/svg">
<path d="M22.3828 86.7773C17.8906 86.7773 13.9648 85.8594 10.6055 84.0234C7.24609 82.1484 4.62891 79.5312 2.75391 76.1719C0.917969 72.7734 0 68.7695 0 64.1602V22.6172C0 18.0078 0.917969 14.0234 2.75391 10.6641C4.62891 7.26562 7.24609 4.64844 10.6055 2.8125C13.9648 0.9375 17.8906 0 22.3828 0C26.8359 0 30.7227 0.9375 34.043 2.8125C37.3633 4.64844 39.9414 7.26562 41.7773 10.6641C43.6523 14.0234 44.5898 18.0078 44.5898 22.6172V64.1602C44.5898 68.7695 43.6523 72.7734 41.7773 76.1719C39.9414 79.5312 37.3633 82.1484 34.043 84.0234C30.7227 85.8594 26.8359 86.7773 22.3828 86.7773ZM22.3242 73.1836C23.5352 73.1836 24.5508 72.8906 25.3711 72.3047C26.2305 71.7188 26.875 70.8984 27.3047 69.8438C27.7734 68.75 28.0078 67.4609 28.0078 65.9766V20.7422C28.0078 19.2578 27.7734 17.9883 27.3047 16.9336C26.875 15.8789 26.2305 15.0586 25.3711 14.4727C24.5508 13.8867 23.5352 13.5938 22.3242 13.5938C21.1133 13.5938 20.0781 13.8867 19.2188 14.4727C18.3594 15.0586 17.6953 15.8984 17.2266 16.9922C16.7969 18.0469 16.582 19.2969 16.582 20.7422V65.9766C16.582 67.4609 16.7969 68.75 17.2266 69.8438C17.6953 70.8984 18.3594 71.7188 19.2188 72.3047C20.0781 72.8906 21.1133 73.1836 22.3242 73.1836ZM49.2211 85.6641V74.0625L64.1625 49.9219C66.6625 45.9375 68.6352 42.4805 70.0805 39.5508C71.5258 36.6211 72.5414 33.8867 73.1273 31.3477C73.7523 28.7695 74.0648 26.0547 74.0648 23.2031V20.3906C74.0648 18.9453 73.85 17.6953 73.4203 16.6406C73.0297 15.5859 72.4437 14.7656 71.6625 14.1797C70.9203 13.5938 69.9633 13.3008 68.7914 13.3008C67.6195 13.3008 66.643 13.6133 65.8617 14.2383C65.0805 14.8242 64.4945 15.6641 64.1039 16.7578C63.7523 17.8125 63.5766 19.0625 63.5766 20.5078V29.707H48.3422V21.5039C48.3422 17.207 49.143 13.457 50.7445 10.2539C52.3852 7.01172 54.768 4.49219 57.893 2.69531C61.018 0.898437 64.807 0 69.2602 0C73.6742 0 77.4242 0.878906 80.5102 2.63672C83.5961 4.35547 85.9398 6.77734 87.5414 9.90234C89.143 12.9883 89.9437 16.6016 89.9437 20.7422V22.6758C89.9437 26.2305 89.475 29.6875 88.5375 33.0469C87.6391 36.3672 86.2133 39.9023 84.2602 43.6523C82.307 47.4023 79.807 51.6602 76.7602 56.4258L64.0453 76.582L67.4437 66.9727V76.582L64.0453 72.1289H90.2367V85.6641H49.2211Z" fill="#DADADA"/>
</svg>
