<svg width="94" height="87" viewBox="0 0 94 87" fill="none" xmlns="http://www.w3.org/2000/svg">
<path d="M22.3828 86.7773C17.8906 86.7773 13.9648 85.8594 10.6055 84.0234C7.24609 82.1484 4.62891 79.5312 2.75391 76.1719C0.917969 72.7734 0 68.7695 0 64.1602V22.6172C0 18.0078 0.917969 14.0234 2.75391 10.6641C4.62891 7.26562 7.24609 4.64844 10.6055 2.8125C13.9648 0.9375 17.8906 0 22.3828 0C26.8359 0 30.7227 0.9375 34.043 2.8125C37.3633 4.64844 39.9414 7.26562 41.7773 10.6641C43.6523 14.0234 44.5898 18.0078 44.5898 22.6172V64.1602C44.5898 68.7695 43.6523 72.7734 41.7773 76.1719C39.9414 79.5312 37.3633 82.1484 34.043 84.0234C30.7227 85.8594 26.8359 86.7773 22.3828 86.7773ZM22.3242 73.1836C23.5352 73.1836 24.5508 72.8906 25.3711 72.3047C26.2305 71.7188 26.875 70.8984 27.3047 69.8438C27.7734 68.75 28.0078 67.4609 28.0078 65.9766V20.7422C28.0078 19.2578 27.7734 17.9883 27.3047 16.9336C26.875 15.8789 26.2305 15.0586 25.3711 14.4727C24.5508 13.8867 23.5352 13.5938 22.3242 13.5938C21.1133 13.5938 20.0781 13.8867 19.2188 14.4727C18.3594 15.0586 17.6953 15.8984 17.2266 16.9922C16.7969 18.0469 16.582 19.2969 16.582 20.7422V65.9766C16.582 67.4609 16.7969 68.75 17.2266 69.8438C17.6953 70.8984 18.3594 71.7188 19.2188 72.3047C20.0781 72.8906 21.1133 73.1836 22.3242 73.1836ZM71.0766 86.7773C66.5062 86.7773 62.5805 85.918 59.2992 84.1992C56.018 82.4414 53.4984 79.9414 51.7406 76.6992C49.9828 73.457 49.0844 69.5898 49.0453 65.0977V58.7695H64.6898V66.0352C64.7289 67.5586 64.9828 68.8477 65.4516 69.9023C65.9203 70.918 66.5844 71.6992 67.4437 72.2461C68.3422 72.793 69.4164 73.0664 70.6664 73.0664C71.9164 73.0664 72.9711 72.793 73.8305 72.2461C74.7289 71.6992 75.4125 70.918 75.8812 69.9023C76.35 68.8477 76.5844 67.5391 76.5844 65.9766V55.4297C76.5844 53.0469 75.9984 51.25 74.8266 50.0391C73.6547 48.8281 71.9555 48.2227 69.7289 48.2227H63.8695V36.0352H69.4359C70.8422 36.0352 72.0141 35.7812 72.9516 35.2734C73.8891 34.7656 74.5922 34.0039 75.0609 32.9883C75.5687 31.9336 75.8227 30.6836 75.8227 29.2383V19.4531C75.8227 18.0859 75.6078 16.9336 75.1781 15.9961C74.7484 15.0195 74.1234 14.2773 73.3031 13.7695C72.5219 13.2227 71.5648 12.9492 70.432 12.9492C69.2602 12.9492 68.2641 13.2227 67.4437 13.7695C66.6625 14.2773 66.057 15.0195 65.6273 15.9961C65.1977 16.9727 64.9633 18.1445 64.9242 19.5117V27.3633H50.1586V20.1562C50.1977 16.0547 51.018 12.5 52.6195 9.49219C54.2602 6.48438 56.6234 4.16016 59.7094 2.51953C62.7953 0.839844 66.5062 0 70.8422 0C75.1391 0 78.8109 0.800781 81.8578 2.40234C84.9437 4.00391 87.2875 6.28906 88.8891 9.25781C90.5297 12.1875 91.35 15.7031 91.35 19.8047V25.6641C91.35 28.5938 90.9203 31.1719 90.0609 33.3984C89.2016 35.5859 87.9516 37.3633 86.3109 38.7305C84.6703 40.0977 82.6195 40.9961 80.1586 41.4258V41.7773C84.2992 42.2461 87.5023 43.9062 89.768 46.7578C92.0336 49.5703 93.1664 53.457 93.1664 58.418V65.0977C93.1664 69.5508 92.268 73.3984 90.4711 76.6406C88.7133 79.8828 86.1742 82.3828 82.8539 84.1406C79.5727 85.8984 75.6469 86.7773 71.0766 86.7773Z" fill="black" fill-opacity="0.2"/>
</svg>
